<?xml version="1.0" encoding="UTF-8" standalone="no"?>
<!DOCTYPE svg PUBLIC "-//W3C//DTD SVG 1.1//EN"
 "http://www.w3.org/Graphics/SVG/1.1/DTD/svg11.dtd">
<!-- Generated by graphviz version 2.43.0 (0)
 -->
<!-- Title: tests.TestGameLogic Pages: 1 -->
<svg width="150pt" height="306pt"
 viewBox="0.00 0.00 150.00 306.00" xmlns="http://www.w3.org/2000/svg" xmlns:xlink="http://www.w3.org/1999/xlink">
<g id="graph0" class="graph" transform="scale(1 1) rotate(0) translate(4 302)">
<title>tests.TestGameLogic</title>
<!-- Node1 -->
<g id="Node000001" class="node">
<title>Node1</title>
<g id="a_Node000001"><a xlink:title="Tests unitaires pour la logique du contrôleur de jeu.">
<polygon fill="#999999" stroke="transparent" points="142,-213 0,-213 0,0 142,0 142,-213"/>
<text text-anchor="start" x="20" y="-200.5" font-family="Helvetica,sans-Serif" font-size="10.00">tests.TestGameLogic</text>
<text text-anchor="start" x="4" y="-185.5" font-family="Helvetica,sans-Serif" font-size="10.00">+</text>
<text text-anchor="start" x="17" y="-185.5" font-family="Helvetica,sans-Serif" font-size="10.00">session</text>
<text text-anchor="start" x="4" y="-170.5" font-family="Helvetica,sans-Serif" font-size="10.00">+</text>
<text text-anchor="start" x="17" y="-170.5" font-family="Helvetica,sans-Serif" font-size="10.00">mock_main_controller</text>
<text text-anchor="start" x="4" y="-155.5" font-family="Helvetica,sans-Serif" font-size="10.00">+</text>
<text text-anchor="start" x="17" y="-155.5" font-family="Helvetica,sans-Serif" font-size="10.00">controller</text>
<text text-anchor="start" x="4" y="-140.5" font-family="Helvetica,sans-Serif" font-size="10.00">+</text>
<text text-anchor="start" x="17" y="-140.5" font-family="Helvetica,sans-Serif" font-size="10.00">setUp()</text>
<text text-anchor="start" x="4" y="-125.5" font-family="Helvetica,sans-Serif" font-size="10.00">+</text>
<text text-anchor="start" x="17" y="-125.5" font-family="Helvetica,sans-Serif" font-size="10.00">test_voting_process()</text>
<text text-anchor="start" x="4" y="-110.5" font-family="Helvetica,sans-Serif" font-size="10.00">+</text>
<text text-anchor="start" x="17" y="-110.5" font-family="Helvetica,sans-Serif" font-size="10.00">test_rule_unanimous</text>
<text text-anchor="start" x="17" y="-99.5" font-family="Helvetica,sans-Serif" font-size="10.00">_round_one()</text>
<text text-anchor="start" x="4" y="-84.5" font-family="Helvetica,sans-Serif" font-size="10.00">+</text>
<text text-anchor="start" x="17" y="-84.5" font-family="Helvetica,sans-Serif" font-size="10.00">test_rule_average_round</text>
<text text-anchor="start" x="17" y="-73.5" font-family="Helvetica,sans-Serif" font-size="10.00">_two()</text>
<text text-anchor="start" x="4" y="-58.5" font-family="Helvetica,sans-Serif" font-size="10.00">+</text>
<text text-anchor="start" x="17" y="-58.5" font-family="Helvetica,sans-Serif" font-size="10.00">test_rule_absolute</text>
<text text-anchor="start" x="17" y="-47.5" font-family="Helvetica,sans-Serif" font-size="10.00">_majority()</text>
<text text-anchor="start" x="4" y="-32.5" font-family="Helvetica,sans-Serif" font-size="10.00">+</text>
<text text-anchor="start" x="17" y="-32.5" font-family="Helvetica,sans-Serif" font-size="10.00">test_coffee_break_rule()</text>
<text text-anchor="start" x="4" y="-17.5" font-family="Helvetica,sans-Serif" font-size="10.00">+</text>
<text text-anchor="start" x="17" y="-17.5" font-family="Helvetica,sans-Serif" font-size="10.00">test_ignore_special</text>
<text text-anchor="start" x="17" y="-6.5" font-family="Helvetica,sans-Serif" font-size="10.00">_cards_in_calc()</text>
<polygon fill="#666666" stroke="#666666" points="0,-195.5 0,-195.5 142,-195.5 142,-195.5 0,-195.5"/>
<polygon fill="#666666" stroke="#666666" points="0,-150.5 0,-150.5 15,-150.5 15,-150.5 0,-150.5"/>
<polygon fill="#666666" stroke="#666666" points="15,-150.5 15,-150.5 142,-150.5 142,-150.5 15,-150.5"/>
<polygon fill="none" stroke="#666666" points="0,0 0,-213 142,-213 142,0 0,0"/>
</a>
</g>
</g>
<!-- Node2 -->
<g id="Node000002" class="node">
<title>Node2</title>
<g id="a_Node000002"><a xlink:title=" ">
<polygon fill="white" stroke="transparent" points="120,-298 22,-298 22,-249 120,-249 120,-298"/>
<text text-anchor="start" x="27" y="-285.5" font-family="Helvetica,sans-Serif" font-size="10.00">unittest::TestCase</text>
<text text-anchor="start" x="69" y="-270.5" font-family="Helvetica,sans-Serif" font-size="10.00"> </text>
<text text-anchor="start" x="69" y="-255.5" font-family="Helvetica,sans-Serif" font-size="10.00"> </text>
<polygon fill="#666666" stroke="#666666" points="22,-280.5 22,-280.5 120,-280.5 120,-280.5 22,-280.5"/>
<polygon fill="#666666" stroke="#666666" points="22,-265.5 22,-265.5 120,-265.5 120,-265.5 22,-265.5"/>
<polygon fill="none" stroke="#666666" points="22,-249 22,-298 120,-298 120,-249 22,-249"/>
</a>
</g>
</g>
<!-- Node2&#45;&gt;Node1 -->
<g id="edge1_Node000001_Node000002" class="edge">
<title>Node2&#45;&gt;Node1</title>
<g id="a_edge1_Node000001_Node000002"><a xlink:title=" ">
<path fill="none" stroke="#63b8ff" d="M71,-238.85C71,-231.06 71,-222.36 71,-213.25"/>
<polygon fill="none" stroke="#63b8ff" points="67.5,-238.86 71,-248.86 74.5,-238.86 67.5,-238.86"/>
</a>
</g>
</g>
</g>
</svg>
