<?xml version="1.0" encoding="UTF-8" standalone="no"?>
<!DOCTYPE svg PUBLIC "-//W3C//DTD SVG 1.1//EN"
 "http://www.w3.org/Graphics/SVG/1.1/DTD/svg11.dtd">
<!-- Generated by graphviz version 2.43.0 (0)
 -->
<!-- Title: tests.TestModels Pages: 1 -->
<svg width="176pt" height="187pt"
 viewBox="0.00 0.00 176.00 187.00" xmlns="http://www.w3.org/2000/svg" xmlns:xlink="http://www.w3.org/1999/xlink">
<g id="graph0" class="graph" transform="scale(1 1) rotate(0) translate(4 183)">
<title>tests.TestModels</title>
<!-- Node1 -->
<g id="Node000001" class="node">
<title>Node1</title>
<g id="a_Node000001"><a xlink:title="Tests unitaires pour les modèles de données (Player, Backlog, GameSession).">
<polygon fill="#999999" stroke="transparent" points="168,-94 0,-94 0,0 168,0 168,-94"/>
<text text-anchor="start" x="43" y="-82" font-family="Helvetica,sans-Serif" font-size="10.00">tests.TestModels</text>
<text text-anchor="start" x="4" y="-67" font-family="Helvetica,sans-Serif" font-size="10.00">+</text>
<text text-anchor="start" x="17" y="-67" font-family="Helvetica,sans-Serif" font-size="10.00">session</text>
<text text-anchor="start" x="4" y="-52" font-family="Helvetica,sans-Serif" font-size="10.00">+</text>
<text text-anchor="start" x="17" y="-52" font-family="Helvetica,sans-Serif" font-size="10.00">setUp()</text>
<text text-anchor="start" x="4" y="-37" font-family="Helvetica,sans-Serif" font-size="10.00">+</text>
<text text-anchor="start" x="17" y="-37" font-family="Helvetica,sans-Serif" font-size="10.00">test_player_management()</text>
<text text-anchor="start" x="4" y="-22" font-family="Helvetica,sans-Serif" font-size="10.00">+</text>
<text text-anchor="start" x="17" y="-22" font-family="Helvetica,sans-Serif" font-size="10.00">test_backlog_management()</text>
<text text-anchor="start" x="4" y="-7" font-family="Helvetica,sans-Serif" font-size="10.00">+</text>
<text text-anchor="start" x="17" y="-7" font-family="Helvetica,sans-Serif" font-size="10.00">test_save_load_serialization()</text>
<polygon fill="#666666" stroke="#666666" points="0,-77 0,-77 168,-77 168,-77 0,-77"/>
<polygon fill="#666666" stroke="#666666" points="0,-62 0,-62 15,-62 15,-62 0,-62"/>
<polygon fill="#666666" stroke="#666666" points="15,-62 15,-62 168,-62 168,-62 15,-62"/>
<polygon fill="none" stroke="#666666" points="0,0 0,-94 168,-94 168,0 0,0"/>
</a>
</g>
</g>
<!-- Node2 -->
<g id="Node000002" class="node">
<title>Node2</title>
<g id="a_Node000002"><a xlink:title=" ">
<polygon fill="white" stroke="transparent" points="131.5,-179 36.5,-179 36.5,-130 131.5,-130 131.5,-179"/>
<text text-anchor="start" x="42" y="-166.5" font-family="Helvetica,sans-Serif" font-size="10.00">unittest.TestCase</text>
<text text-anchor="start" x="82.5" y="-151.5" font-family="Helvetica,sans-Serif" font-size="10.00"> </text>
<text text-anchor="start" x="82.5" y="-136.5" font-family="Helvetica,sans-Serif" font-size="10.00"> </text>
<polygon fill="#666666" stroke="#666666" points="37,-161.5 37,-161.5 132,-161.5 132,-161.5 37,-161.5"/>
<polygon fill="#666666" stroke="#666666" points="37,-146.5 37,-146.5 132,-146.5 132,-146.5 37,-146.5"/>
<polygon fill="none" stroke="#666666" points="36.5,-130 36.5,-179 131.5,-179 131.5,-130 36.5,-130"/>
</a>
</g>
</g>
<!-- Node2&#45;&gt;Node1 -->
<g id="edge1_Node000001_Node000002" class="edge">
<title>Node2&#45;&gt;Node1</title>
<g id="a_edge1_Node000001_Node000002"><a xlink:title=" ">
<path fill="none" stroke="#63b8ff" d="M84,-119.61C84,-111.48 84,-102.66 84,-94.08"/>
<polygon fill="none" stroke="#63b8ff" points="80.5,-119.82 84,-129.82 87.5,-119.82 80.5,-119.82"/>
</a>
</g>
</g>
</g>
</svg>
