<?xml version="1.0" encoding="UTF-8" standalone="no"?>
<!DOCTYPE svg PUBLIC "-//W3C//DTD SVG 1.1//EN"
 "http://www.w3.org/Graphics/SVG/1.1/DTD/svg11.dtd">
<!-- Generated by graphviz version 2.43.0 (0)
 -->
<!-- Title: HeaderView.HeaderView Pages: 1 -->
<svg width="139pt" height="202pt"
 viewBox="0.00 0.00 139.00 202.00" xmlns="http://www.w3.org/2000/svg" xmlns:xlink="http://www.w3.org/1999/xlink">
<g id="graph0" class="graph" transform="scale(1 1) rotate(0) translate(4 198)">
<title>HeaderView.HeaderView</title>
<!-- Node1 -->
<g id="Node000001" class="node">
<title>Node1</title>
<g id="a_Node000001"><a xlink:title="Barre de navigation supérieure commune à l&#39;application.">
<polygon fill="#999999" stroke="transparent" points="131,-109 0,-109 0,0 131,0 131,-109"/>
<text text-anchor="start" x="5.5" y="-96.5" font-family="Helvetica,sans-Serif" font-size="10.00">HeaderView.HeaderView</text>
<text text-anchor="start" x="17.5" y="-81.5" font-family="Helvetica,sans-Serif" font-size="10.00">+</text>
<text text-anchor="start" x="43.5" y="-81.5" font-family="Helvetica,sans-Serif" font-size="10.00">controller</text>
<text text-anchor="start" x="17.5" y="-66.5" font-family="Helvetica,sans-Serif" font-size="10.00">+</text>
<text text-anchor="start" x="43.5" y="-66.5" font-family="Helvetica,sans-Serif" font-size="10.00">home_btn</text>
<text text-anchor="start" x="17.5" y="-51.5" font-family="Helvetica,sans-Serif" font-size="10.00">+</text>
<text text-anchor="start" x="43.5" y="-51.5" font-family="Helvetica,sans-Serif" font-size="10.00">quit_btn</text>
<text text-anchor="start" x="17.5" y="-36.5" font-family="Helvetica,sans-Serif" font-size="10.00">+</text>
<text text-anchor="start" x="43.5" y="-36.5" font-family="Helvetica,sans-Serif" font-size="10.00">__init__()</text>
<text text-anchor="start" x="17.5" y="-21.5" font-family="Helvetica,sans-Serif" font-size="10.00">#</text>
<text text-anchor="start" x="43.5" y="-21.5" font-family="Helvetica,sans-Serif" font-size="10.00">_on_home()</text>
<text text-anchor="start" x="17.5" y="-6.5" font-family="Helvetica,sans-Serif" font-size="10.00">#</text>
<text text-anchor="start" x="43.5" y="-6.5" font-family="Helvetica,sans-Serif" font-size="10.00">_on_quit()</text>
<polygon fill="#666666" stroke="#666666" points="0.5,-91.5 0.5,-91.5 131.5,-91.5 131.5,-91.5 0.5,-91.5"/>
<polygon fill="#666666" stroke="#666666" points="0.5,-46.5 0.5,-46.5 41.5,-46.5 41.5,-46.5 0.5,-46.5"/>
<polygon fill="#666666" stroke="#666666" points="41.5,-46.5 41.5,-46.5 131.5,-46.5 131.5,-46.5 41.5,-46.5"/>
<polygon fill="none" stroke="#666666" points="0,0 0,-109 131,-109 131,0 0,0"/>
</a>
</g>
</g>
<!-- Node2 -->
<g id="Node000002" class="node">
<title>Node2</title>
<g id="a_Node000002"><a xlink:title=" ">
<polygon fill="white" stroke="transparent" points="104.5,-194 26.5,-194 26.5,-145 104.5,-145 104.5,-194"/>
<text text-anchor="start" x="31.5" y="-181.5" font-family="Helvetica,sans-Serif" font-size="10.00">ctk.CTkFrame</text>
<text text-anchor="start" x="63.5" y="-166.5" font-family="Helvetica,sans-Serif" font-size="10.00"> </text>
<text text-anchor="start" x="63.5" y="-151.5" font-family="Helvetica,sans-Serif" font-size="10.00"> </text>
<polygon fill="#666666" stroke="#666666" points="26.5,-176.5 26.5,-176.5 104.5,-176.5 104.5,-176.5 26.5,-176.5"/>
<polygon fill="#666666" stroke="#666666" points="26.5,-161.5 26.5,-161.5 104.5,-161.5 104.5,-161.5 26.5,-161.5"/>
<polygon fill="none" stroke="#666666" points="26.5,-145 26.5,-194 104.5,-194 104.5,-145 26.5,-145"/>
</a>
</g>
</g>
<!-- Node2&#45;&gt;Node1 -->
<g id="edge1_Node000001_Node000002" class="edge">
<title>Node2&#45;&gt;Node1</title>
<g id="a_edge1_Node000001_Node000002"><a xlink:title=" ">
<path fill="none" stroke="#63b8ff" d="M65.5,-134.79C65.5,-126.79 65.5,-118.06 65.5,-109.41"/>
<polygon fill="none" stroke="#63b8ff" points="62,-134.81 65.5,-144.81 69,-134.81 62,-134.81"/>
</a>
</g>
</g>
</g>
</svg>
