<?xml version="1.0" encoding="UTF-8" standalone="no"?>
<!DOCTYPE svg PUBLIC "-//W3C//DTD SVG 1.1//EN"
 "http://www.w3.org/Graphics/SVG/1.1/DTD/svg11.dtd">
<!-- Generated by graphviz version 2.43.0 (0)
 -->
<!-- Title: MainWindow.MainWindow Pages: 1 -->
<svg width="147pt" height="202pt"
 viewBox="0.00 0.00 147.00 202.00" xmlns="http://www.w3.org/2000/svg" xmlns:xlink="http://www.w3.org/1999/xlink">
<g id="graph0" class="graph" transform="scale(1 1) rotate(0) translate(4 198)">
<title>MainWindow.MainWindow</title>
<!-- Node1 -->
<g id="Node000001" class="node">
<title>Node1</title>
<g id="a_Node000001"><a xlink:title="Fenêtre principale de l&#39;application.">
<polygon fill="#999999" stroke="transparent" points="139,-109 0,-109 0,0 139,0 139,-109"/>
<text text-anchor="start" x="5.5" y="-96.5" font-family="Helvetica,sans-Serif" font-size="10.00">MainWindow.MainWindow</text>
<text text-anchor="start" x="15" y="-81.5" font-family="Helvetica,sans-Serif" font-size="10.00">+</text>
<text text-anchor="start" x="38.5" y="-81.5" font-family="Helvetica,sans-Serif" font-size="10.00">controller</text>
<text text-anchor="start" x="15" y="-66.5" font-family="Helvetica,sans-Serif" font-size="10.00">+</text>
<text text-anchor="start" x="38.5" y="-66.5" font-family="Helvetica,sans-Serif" font-size="10.00">frames</text>
<text text-anchor="start" x="15" y="-51.5" font-family="Helvetica,sans-Serif" font-size="10.00">+</text>
<text text-anchor="start" x="38.5" y="-51.5" font-family="Helvetica,sans-Serif" font-size="10.00">header</text>
<text text-anchor="start" x="15" y="-36.5" font-family="Helvetica,sans-Serif" font-size="10.00">+</text>
<text text-anchor="start" x="38.5" y="-36.5" font-family="Helvetica,sans-Serif" font-size="10.00">__init__()</text>
<text text-anchor="start" x="15" y="-21.5" font-family="Helvetica,sans-Serif" font-size="10.00">+</text>
<text text-anchor="start" x="38.5" y="-21.5" font-family="Helvetica,sans-Serif" font-size="10.00">set_controller()</text>
<text text-anchor="start" x="15" y="-6.5" font-family="Helvetica,sans-Serif" font-size="10.00">+</text>
<text text-anchor="start" x="38.5" y="-6.5" font-family="Helvetica,sans-Serif" font-size="10.00">quit_app()</text>
<polygon fill="#666666" stroke="#666666" points="0.5,-91.5 0.5,-91.5 139.5,-91.5 139.5,-91.5 0.5,-91.5"/>
<polygon fill="#666666" stroke="#666666" points="0.5,-46.5 0.5,-46.5 36.5,-46.5 36.5,-46.5 0.5,-46.5"/>
<polygon fill="#666666" stroke="#666666" points="36.5,-46.5 36.5,-46.5 139.5,-46.5 139.5,-46.5 36.5,-46.5"/>
<polygon fill="none" stroke="#666666" points="0,0 0,-109 139,-109 139,0 0,0"/>
</a>
</g>
</g>
<!-- Node2 -->
<g id="Node000002" class="node">
<title>Node2</title>
<g id="a_Node000002"><a xlink:title=" ">
<polygon fill="white" stroke="transparent" points="94.5,-194 44.5,-194 44.5,-145 94.5,-145 94.5,-194"/>
<text text-anchor="start" x="49.5" y="-181.5" font-family="Helvetica,sans-Serif" font-size="10.00">ctk::CTk</text>
<text text-anchor="start" x="67.5" y="-166.5" font-family="Helvetica,sans-Serif" font-size="10.00"> </text>
<text text-anchor="start" x="67.5" y="-151.5" font-family="Helvetica,sans-Serif" font-size="10.00"> </text>
<polygon fill="#666666" stroke="#666666" points="44.5,-176.5 44.5,-176.5 94.5,-176.5 94.5,-176.5 44.5,-176.5"/>
<polygon fill="#666666" stroke="#666666" points="44.5,-161.5 44.5,-161.5 94.5,-161.5 94.5,-161.5 44.5,-161.5"/>
<polygon fill="none" stroke="#666666" points="44.5,-145 44.5,-194 94.5,-194 94.5,-145 44.5,-145"/>
</a>
</g>
</g>
<!-- Node2&#45;&gt;Node1 -->
<g id="edge1_Node000001_Node000002" class="edge">
<title>Node2&#45;&gt;Node1</title>
<g id="a_edge1_Node000001_Node000002"><a xlink:title=" ">
<path fill="none" stroke="#63b8ff" d="M69.5,-134.79C69.5,-126.79 69.5,-118.06 69.5,-109.41"/>
<polygon fill="none" stroke="#63b8ff" points="66,-134.81 69.5,-144.81 73,-134.81 66,-134.81"/>
</a>
</g>
</g>
</g>
</svg>
