<?xml version="1.0" encoding="UTF-8" standalone="no"?>
<!DOCTYPE svg PUBLIC "-//W3C//DTD SVG 1.1//EN"
 "http://www.w3.org/Graphics/SVG/1.1/DTD/svg11.dtd">
<!-- Generated by graphviz version 2.43.0 (0)
 -->
<!-- Title: Graphical Class Hierarchy Pages: 1 -->
<svg width="265pt" height="175pt"
 viewBox="0.00 0.00 265.00 175.00" xmlns="http://www.w3.org/2000/svg" xmlns:xlink="http://www.w3.org/1999/xlink">
<g id="graph0" class="graph" transform="scale(1 1) rotate(0) translate(4 171)">
<title>Graphical Class Hierarchy</title>
<!-- Node0 -->
<g id="Node000000" class="node">
<title>Node0</title>
<g id="a_Node000000"><a xlink:title=" ">
<polygon fill="#e0e0e0" stroke="#999999" points="84,-93 0,-93 0,-74 84,-74 84,-93"/>
<text text-anchor="middle" x="42" y="-81" font-family="Helvetica,sans-Serif" font-size="10.00">ctk.CTkFrame</text>
</a>
</g>
</g>
<!-- Node1 -->
<g id="Node000001" class="node">
<title>Node1</title>
<g id="a_Node000001"><a xlink:href="classGameView_1_1GameView.html" target="_top" xlink:title="Vue principale du jeu en cours.">
<polygon fill="white" stroke="#666666" points="251,-167 126,-167 126,-148 251,-148 251,-167"/>
<text text-anchor="middle" x="188.5" y="-155" font-family="Helvetica,sans-Serif" font-size="10.00">GameView.GameView</text>
</a>
</g>
</g>
<!-- Node0&#45;&gt;Node1 -->
<g id="edge2_Node000000_Node000001" class="edge">
<title>Node0&#45;&gt;Node1</title>
<g id="a_edge2_Node000000_Node000001"><a xlink:title=" ">
<path fill="none" stroke="#63b8ff" d="M61.53,-100.02C76.4,-112.49 98.3,-129.16 120,-139.5 127.01,-142.84 134.73,-145.63 142.37,-147.95"/>
<polygon fill="#63b8ff" stroke="#63b8ff" points="63.51,-97.11 53.65,-93.25 58.95,-102.42 63.51,-97.11"/>
</a>
</g>
</g>
<!-- Node2 -->
<g id="Node000002" class="node">
<title>Node2</title>
<g id="a_Node000002"><a xlink:href="classHeaderView_1_1HeaderView.html" target="_top" xlink:title="Barre de navigation supérieure commune à l&#39;application.">
<polygon fill="white" stroke="#666666" points="257,-130 120,-130 120,-111 257,-111 257,-130"/>
<text text-anchor="middle" x="188.5" y="-118" font-family="Helvetica,sans-Serif" font-size="10.00">HeaderView.HeaderView</text>
</a>
</g>
</g>
<!-- Node0&#45;&gt;Node2 -->
<g id="edge3_Node000000_Node000002" class="edge">
<title>Node0&#45;&gt;Node2</title>
<g id="a_edge3_Node000000_Node000002"><a xlink:title=" ">
<path fill="none" stroke="#63b8ff" d="M90.11,-95.56C109.58,-100.55 131.84,-106.25 150.16,-110.94"/>
<polygon fill="#63b8ff" stroke="#63b8ff" points="90.77,-92.12 80.21,-93.03 89.03,-98.9 90.77,-92.12"/>
</a>
</g>
</g>
<!-- Node3 -->
<g id="Node000003" class="node">
<title>Node3</title>
<g id="a_Node000003"><a xlink:href="classHomeView_1_1HomeView.html" target="_top" xlink:title="Vue d&#39;accueil de l&#39;application.">
<polygon fill="white" stroke="#666666" points="251,-93 126,-93 126,-74 251,-74 251,-93"/>
<text text-anchor="middle" x="188.5" y="-81" font-family="Helvetica,sans-Serif" font-size="10.00">HomeView.HomeView</text>
</a>
</g>
</g>
<!-- Node0&#45;&gt;Node3 -->
<g id="edge4_Node000000_Node000003" class="edge">
<title>Node0&#45;&gt;Node3</title>
<g id="a_edge4_Node000000_Node000003"><a xlink:title=" ">
<path fill="none" stroke="#63b8ff" d="M94.06,-83.5C104.35,-83.5 115.26,-83.5 125.87,-83.5"/>
<polygon fill="#63b8ff" stroke="#63b8ff" points="94.02,-80 84.02,-83.5 94.02,-87 94.02,-80"/>
</a>
</g>
</g>
<!-- Node4 -->
<g id="Node000004" class="node">
<title>Node4</title>
<g id="a_Node000004"><a xlink:href="classResultView_1_1ResultView.html" target="_top" xlink:title="Vue affichant le bilan de la partie.">
<polygon fill="white" stroke="#666666" points="252.5,-56 124.5,-56 124.5,-37 252.5,-37 252.5,-56"/>
<text text-anchor="middle" x="188.5" y="-44" font-family="Helvetica,sans-Serif" font-size="10.00">ResultView.ResultView</text>
</a>
</g>
</g>
<!-- Node0&#45;&gt;Node4 -->
<g id="edge5_Node000000_Node000004" class="edge">
<title>Node0&#45;&gt;Node4</title>
<g id="a_edge5_Node000000_Node000004"><a xlink:title=" ">
<path fill="none" stroke="#63b8ff" d="M90.11,-71.44C109.58,-66.45 131.84,-60.75 150.16,-56.06"/>
<polygon fill="#63b8ff" stroke="#63b8ff" points="89.03,-68.1 80.21,-73.97 90.77,-74.88 89.03,-68.1"/>
</a>
</g>
</g>
<!-- Node5 -->
<g id="Node000005" class="node">
<title>Node5</title>
<g id="a_Node000005"><a xlink:href="classSetupView_1_1SetupView.html" target="_top" xlink:title="Vue de configuration de la partie.">
<polygon fill="white" stroke="#666666" points="249.5,-19 127.5,-19 127.5,0 249.5,0 249.5,-19"/>
<text text-anchor="middle" x="188.5" y="-7" font-family="Helvetica,sans-Serif" font-size="10.00">SetupView.SetupView</text>
</a>
</g>
</g>
<!-- Node0&#45;&gt;Node5 -->
<g id="edge6_Node000000_Node000005" class="edge">
<title>Node0&#45;&gt;Node5</title>
<g id="a_edge6_Node000000_Node000005"><a xlink:title=" ">
<path fill="none" stroke="#63b8ff" d="M61.62,-67.37C76.54,-55.18 98.46,-38.84 120,-28.5 127.79,-24.76 136.46,-21.63 144.91,-19.07"/>
<polygon fill="#63b8ff" stroke="#63b8ff" points="59.13,-64.89 53.71,-73.99 63.62,-70.26 59.13,-64.89"/>
</a>
</g>
</g>
</g>
</svg>
